<?xml version="1.0" standalone="no"?><!DOCTYPE svg PUBLIC "-//W3C//DTD SVG 1.1//EN" "http://www.w3.org/Graphics/SVG/1.1/DTD/svg11.dtd"><svg t="1581653648538" class="icon" viewBox="0 0 1024 1024" version="1.1" xmlns="http://www.w3.org/2000/svg" p-id="4666" xmlns:xlink="http://www.w3.org/1999/xlink" width="200" height="200"><defs><style type="text/css"></style></defs><path d="M51.2 102.4a51.2 51.2 0 1 1-51.2 51.2 51.2 51.2 0 0 1 51.2-51.2z m204.8 0h716.8a51.2 51.2 0 0 1 0 102.4H256a51.2 51.2 0 0 1 0-102.4zM51.2 460.8a51.2 51.2 0 1 1-51.2 51.2 51.2 51.2 0 0 1 51.2-51.2z m204.8 0h716.8a51.2 51.2 0 0 1 0 102.4H256a51.2 51.2 0 0 1 0-102.4z m-204.8 358.4a51.2 51.2 0 1 1-51.2 51.2 51.2 51.2 0 0 1 51.2-51.2z m204.8 0h716.8a51.2 51.2 0 0 1 0 102.4H256a51.2 51.2 0 0 1 0-102.4z" p-id="4667" fill="#d81e06"></path></svg>